<svg width="512" height="512" viewBox="0 0 512 512" fill="none" xmlns="http://www.w3.org/2000/svg">
<path d="M256 92.3C181.8 92.3 128.2 147.6 119.7 207C114.4 246.6 127.2 285.2 153.8 314.4C177.2 339.4 190 372.8 190 407.2L189.9 461.4C189.9 483.3 208 501 230.4 501H282.6C305 501 323.1 483.3 323.1 461.4L323.2 407.2C323.2 371.8 334.9 339.4 357.3 316.5C381.8 291.5 394.6 259.2 394.6 225.8C394.5 151.7 331.6 92.3 256 92.3V92.3ZM302.8 461.4C302.8 471.8 294.3 480.2 283.6 480.2H231.4C220.7 480.2 212.2 471.9 212.2 461.4V437.4H302.7V461.4H302.8ZM342.4 301.9C315.8 329 301.9 366.5 301.9 407.2V416.6H211.4V407.2C211.4 368.6 195.4 330.1 168.8 300.9C145.4 275.9 135.8 243.6 140 210.2C147.5 160.2 194 113.2 256.1 113.2C321.1 113.2 373.3 164.3 373.3 225.8C373.3 253.9 362.6 281 342.4 301.9Z" fill="#077BE7"/>
<path d="M266.6 11H245.3V61H266.6V11Z" fill="#077BE7"/>
<path d="M385.1 107.4L400 122.3L436.5 87.2L421.5 72.3L385.1 107.4Z" fill="#077BE7"/>
<path d="M501 236.2H448.8V257.1H501V236.2Z" fill="#077BE7"/>
<path d="M63.2 236.2H11V257.1H63.2V236.2Z" fill="#077BE7"/>
<path d="M90.1 72.2L75.1 87.1L111.6 122.2L126.5 107.3L90.1 72.2Z" fill="#077BE7"/>
</svg>
