<svg width="512" height="512" viewBox="0 0 512 512" fill="none" xmlns="http://www.w3.org/2000/svg">
<path d="M482.5 409.3H51.3C46.9 409.3 43.7 407.2 41.5 404.1C39.3 401 40.4 396.8 42.6 393.7L153.7 245.7C157 241.5 163.5 240.5 167.9 243.6L219 277L290.9 147.8C292 144.7 295.3 142.6 298.5 142.6C301.7 142.6 305 143.6 307.2 145.7L361.6 199.9L473.8 16.5C476 12.3 481.4 10.2 485.8 11.3C490.2 12.3 493.4 16.5 493.4 20.7V397.9C493.4 405.1 487.9 409.3 482.5 409.3V409.3ZM72 388.5H471.6V59.2L373.6 220.7C371.4 223.8 369.2 224.9 366 225.9C362.7 225.9 359.5 224.9 357.3 222.8L303.9 169.7L233.1 295.8C232 297.9 228.7 300 226.6 301C223.3 302 220.1 301 217.9 300L165.6 265.6L72 388.5V388.5Z" fill="#077BE7"/>
<path d="M501 480.2H11V501H501V480.2Z" fill="#077BE7"/>
</svg>
