<svg width="512" height="512" viewBox="0 0 512 512" fill="none" xmlns="http://www.w3.org/2000/svg">
<g clip-path="url(#clip0)">
<path d="M269.098 159.866C264.575 164.39 264.575 171.724 269.1 176.248C273.625 180.773 280.959 180.772 285.482 176.246L295.046 166.678C298.487 163.236 299.41 158.012 297.356 153.6C290.973 139.885 287.737 125.696 287.737 111.426C287.737 82.3752 300.383 55.0133 321.713 36.1087L321.75 111.937C321.751 115.735 323.616 119.293 326.739 121.455L381.699 159.512C385.665 162.258 390.918 162.26 394.884 159.515L449.864 121.477C452.991 119.313 454.858 115.754 454.858 111.95L454.849 36.1261C476.177 55.0133 488.824 82.3532 488.831 111.38C488.831 138.242 478.372 163.498 459.38 182.494C440.402 201.477 415.178 211.926 388.343 211.926C388.317 211.926 388.291 211.926 388.264 211.926C379.031 211.919 360.906 207.449 354.7 205.727C350.677 204.608 346.361 205.744 343.408 208.696L308.192 243.914C303.668 248.437 303.668 255.772 308.192 260.296C310.454 262.558 313.418 263.689 316.382 263.689C319.347 263.689 322.312 262.558 324.573 260.296L355.1 229.769C363.61 231.873 378.239 235.087 388.245 235.094C388.28 235.094 388.309 235.094 388.343 235.094C421.362 235.093 452.409 222.231 475.761 198.874C499.128 175.502 511.996 144.43 511.996 111.377C511.986 66.8565 487.829 25.5722 448.954 3.6338C445.368 1.61012 440.977 1.6414 437.419 3.71836C433.863 5.79532 431.676 9.60404 431.677 13.7232L431.687 105.88L388.294 135.9L344.917 105.86L344.871 13.6966C344.869 9.57856 342.681 5.77099 339.125 3.69635C335.568 1.62055 331.177 1.59159 327.591 3.61642C288.719 25.5745 264.572 66.8843 264.572 111.425C264.572 126.47 267.445 141.373 273.124 155.84L269.098 159.866Z" fill="#077BE7"/>
<path d="M238.425 313.683L77.7336 474.381C71.695 480.423 63.6675 483.752 55.1303 483.758C55.1245 483.758 55.1199 483.758 55.113 483.758C46.5781 483.757 38.5494 480.43 32.512 474.392C26.4757 468.349 23.1558 460.311 23.1662 451.757C23.1755 443.228 26.5012 435.221 32.5456 429.196L170.761 290.968C175.285 286.444 175.285 279.111 170.761 274.586C166.238 270.064 158.903 270.063 154.38 274.587L16.1789 412.802C5.76287 423.182 0.017354 437.007 -2.16053e-05 451.73C-0.0173972 466.477 5.70843 480.341 16.1268 490.771C26.5452 501.189 40.3901 506.925 55.113 506.925C55.1234 506.925 55.1338 506.925 55.1431 506.925C69.8671 506.917 83.7097 501.175 94.1188 490.76L254.807 330.066C259.33 325.543 259.33 318.208 254.807 313.683C250.282 309.161 242.949 309.161 238.425 313.683Z" fill="#077BE7"/>
<path d="M54.9485 437.692C51.1328 437.694 47.5488 439.185 44.9031 441.844C39.3348 447.378 39.307 456.42 44.8405 461.998C44.8544 462.013 44.8683 462.026 44.8822 462.041C47.6565 464.808 51.2985 466.193 54.9462 466.193C58.602 466.193 62.2636 464.801 65.0587 462.012C70.6027 456.441 70.5865 447.399 65.046 441.876C62.3528 439.177 58.7711 437.692 54.9578 437.692C54.9554 437.692 54.952 437.692 54.9485 437.692Z" fill="#077BE7"/>
<path d="M433.672 378.969C432.472 377.77 431.024 376.849 429.43 376.27L396.212 364.225L276.218 244.23L295.613 224.836C300.136 220.313 300.137 212.978 295.613 208.453C292.179 205.022 287.128 204.193 282.914 205.97L101.418 24.4949C90.441 13.4823 75.8223 7.40777 60.255 7.38924C60.2318 7.38924 60.211 7.38924 60.1878 7.38924C44.6204 7.38924 29.9879 13.4429 18.9776 24.4405C7.95337 35.4647 1.88698 50.1157 1.89625 65.6958C1.90436 81.2632 7.97538 95.9004 18.988 106.907L200.486 288.397C198.709 292.61 199.536 297.662 202.97 301.095C207.494 305.618 214.829 305.62 219.351 301.095L238.741 281.705L358.736 401.699L370.782 434.918C371.36 436.512 372.281 437.962 373.481 439.16L440.81 506.488C443.072 508.75 446.037 509.881 449.001 509.881C451.965 509.881 454.93 508.75 457.192 506.488L501 462.68C503.172 460.507 504.393 457.561 504.393 454.489C504.393 451.417 503.172 448.471 501 446.298L433.672 378.969ZM251.643 236.039C251.619 236.063 251.594 236.09 251.569 236.114L216.268 271.416L35.3674 90.5232C28.7276 83.8869 25.0683 75.0659 25.0637 65.6843C25.059 56.2968 28.7149 47.4677 35.3546 40.8279C41.9863 34.2032 50.8038 30.5578 60.1878 30.5578C60.2017 30.5578 60.2156 30.5578 60.2283 30.5578C69.603 30.5682 78.402 34.2241 85.021 40.8638L265.93 221.754L251.719 235.965C251.694 235.989 251.669 236.013 251.643 236.039ZM449.001 481.916L391.685 424.6L379.639 391.38C379.061 389.786 378.14 388.337 376.94 387.138L255.124 265.324L259.836 260.613L381.651 382.428C382.851 383.627 384.299 384.548 385.893 385.127L419.111 397.172L476.428 454.488L449.001 481.916Z" fill="#077BE7"/>
<path d="M68.3219 57.4239C63.7984 52.9016 56.4636 52.9016 51.9402 57.4239C47.4167 61.9474 47.4167 69.2822 51.9402 73.8068L211.739 233.604C214 235.865 216.965 236.997 219.929 236.997C222.894 236.997 225.859 235.865 228.12 233.604C232.644 229.081 232.644 221.746 228.12 217.221L68.3219 57.4239Z" fill="#077BE7"/>
</g>
<defs>
<clipPath id="clip0">
<rect width="512" height="512" fill="white"/>
</clipPath>
</defs>
</svg>
