<svg width="450" height="229" viewBox="0 0 450 229" fill="none" xmlns="http://www.w3.org/2000/svg">
<path d="M188.531 146L170.906 116.188H166.828V146H152.766V78.2656H177.328C181.047 78.2656 184.328 78.7969 187.172 79.8594C190.016 80.8906 192.281 82.3438 193.969 84.2188C195.688 86.0625 196.969 88.1875 197.812 90.5938C198.688 93 199.125 95.6406 199.125 98.5156C199.125 103.047 197.891 106.766 195.422 109.672C192.953 112.547 189.406 114.484 184.781 115.484L205.172 146H188.531ZM166.828 89.9375V106.109H175.125C182.156 106.109 185.672 103.422 185.672 98.0469C185.672 95.5156 184.812 93.5312 183.094 92.0938C181.375 90.6562 178.719 89.9375 175.125 89.9375H166.828ZM256.125 121.203L255.984 124.438H220.266C220.547 128.281 221.828 131.219 224.109 133.25C226.391 135.281 229.219 136.297 232.594 136.297C235.031 136.297 237.141 135.75 238.922 134.656C240.734 133.531 242.094 131.906 243 129.781L255.375 131.609C253.781 136.453 250.969 140.219 246.938 142.906C242.906 145.594 238.156 146.938 232.688 146.938C224.812 146.938 218.547 144.734 213.891 140.328C209.266 135.891 206.953 129.75 206.953 121.906C206.953 114.125 209.281 108 213.938 103.531C218.594 99.0312 224.703 96.7812 232.266 96.7812C239.453 96.7812 245.219 98.8281 249.562 102.922C253.906 107.016 256.094 113.109 256.125 121.203ZM232.359 106.344C225.797 106.344 221.891 109.438 220.641 115.625H242.766C242.422 112.625 241.312 110.328 239.438 108.734C237.562 107.141 235.203 106.344 232.359 106.344ZM294.656 96.875C297.844 96.875 300.844 97.4531 303.656 98.6094C306.469 99.7656 308.922 101.391 311.016 103.484C313.141 105.578 314.812 108.234 316.031 111.453C317.25 114.641 317.859 118.156 317.859 122C317.859 125.844 317.25 129.375 316.031 132.594C314.812 135.781 313.141 138.422 311.016 140.516C308.922 142.609 306.469 144.234 303.656 145.391C300.844 146.547 297.844 147.125 294.656 147.125C291.469 147.125 288.562 146.531 285.938 145.344C283.312 144.156 281.297 142.469 279.891 140.281V169.438H266.391V97.8125H279.188L279.562 104.281C280.875 101.938 282.875 100.125 285.562 98.8438C288.281 97.5312 291.312 96.875 294.656 96.875ZM291.609 135.922C295.266 135.922 298.297 134.672 300.703 132.172C303.141 129.641 304.359 126.25 304.359 122C304.359 117.75 303.141 114.375 300.703 111.875C298.297 109.344 295.266 108.078 291.609 108.078C287.922 108.078 284.859 109.359 282.422 111.922C279.984 114.484 278.766 117.844 278.766 122C278.766 126.156 279.984 129.516 282.422 132.078C284.859 134.641 287.922 135.922 291.609 135.922ZM328.078 146V74H341.719V146H328.078ZM387.281 97.8125H401.109L371.391 168.688H357.703L368.719 144.031L348.891 97.8125H363.609L375.094 129.5L387.281 97.8125Z" fill="#077BE7"/>
<g clip-path="url(#clip0)">
<path d="M82.5021 101.916C76.0112 95.3876 67.7229 91.3025 58.7425 90.1212L63.9642 84.0521C64.602 83.3111 64.7796 82.2795 64.4267 81.368C64.0737 80.4566 63.2472 79.8131 62.2767 79.6937L47.6141 77.8945C46.735 77.7877 45.8582 78.1257 45.2801 78.7973L32.2577 93.9325C31.5594 94.7434 31.418 95.8948 31.8989 96.8504L40.8704 114.684C41.2687 115.476 42.0365 116.016 42.9167 116.124L57.5793 117.924C58.5535 118.044 59.5124 117.616 60.0749 116.813C60.6374 116.01 60.7105 114.963 60.2654 114.09L56.4277 106.564C68.6034 108.676 78.1761 119.103 78.1761 131.205V153.35C78.1761 154.813 79.3635 156 80.8281 156H91.9075C93.372 156 94.5594 154.813 94.5594 153.35V131.205C94.5594 120.138 90.2774 109.736 82.5021 101.916ZM89.2558 150.7H89.2555H83.48V131.205C83.48 114.764 69.0188 100.875 51.9011 100.875C50.9783 100.875 50.122 101.354 49.6401 102.14C49.1579 102.926 49.1194 103.906 49.5382 104.728L53.2749 112.055L44.9717 111.037L37.4318 96.0487L48.3761 83.3288L56.712 84.3515L51.2613 90.6867C50.5853 91.4719 50.4295 92.5786 50.862 93.52C51.2942 94.4612 52.2354 95.0646 53.272 95.0646C73.1134 95.0646 89.2558 111.278 89.2558 131.205V150.7Z" fill="#077BE7"/>
</g>
<path d="M89.8855 80.0409C95.8897 73.5126 103.556 69.4275 111.863 68.2462L107.033 62.1771C106.443 61.4361 106.279 60.4045 106.605 59.493C106.932 58.5816 107.696 57.9381 108.594 57.8187L122.157 56.0195C122.97 55.9127 123.781 56.2507 124.316 56.9223L136.362 72.0575C137.008 72.8684 137.138 74.0198 136.694 74.9754L128.395 92.8092C128.026 93.601 127.316 94.1413 126.502 94.2494L112.939 96.0487C112.038 96.1686 111.151 95.7409 110.631 94.9381C110.11 94.1353 110.043 93.0878 110.454 92.2148L114.004 84.6892C102.742 86.801 95.1401 97.2284 95.1401 109.33L94.5538 131.475C94.5538 133.344 91.2402 128.825 89.8855 128.825H83.4137C82.059 128.825 78.7326 132.938 78.7326 131.475V109.33C78.7326 98.2633 82.6934 87.8613 89.8855 80.0409ZM83.4137 128.825H89.2769L88.981 109.33C88.981 92.8895 102.358 78.9995 118.191 78.9995C119.045 78.9995 119.837 79.4788 120.283 80.2651C120.729 81.0513 120.765 82.0314 120.377 82.8532L116.921 90.1804L124.601 89.1616L131.576 74.1737L121.452 61.4538L113.741 62.4765L118.783 68.8117C119.409 69.5969 119.553 70.7036 119.153 71.645C118.753 72.5862 117.882 73.1896 116.923 73.1896C98.5701 73.1896 83.6384 89.4025 83.6384 109.33L83.4137 128.825Z" fill="#077BE7"/>
<defs>
<clipPath id="clip0">
<rect width="78.1759" height="78.125" fill="white" transform="translate(24 77.875)"/>
</clipPath>
</defs>
</svg>
